<?xml version="1.0" standalone="no"?>
<!DOCTYPE svg PUBLIC "-//W3C//DTD SVG 20010904//EN"
 "http://www.w3.org/TR/2001/REC-SVG-20010904/DTD/svg10.dtd">
<svg version="1.0" xmlns="http://www.w3.org/2000/svg"
 width="400.000000pt" height="400.000000pt" viewBox="0 0 400.000000 400.000000"
 preserveAspectRatio="xMidYMid meet">

<g transform="translate(0.000000,400.000000) scale(0.100000,-0.100000)"
fill="#000000" stroke="none">
<path d="M1712 3920 c-18 -4 -36 -10 -39 -14 -3 -3 -12 -1 -19 5 -9 7 -19 7
-34 -1 -11 -6 -25 -8 -30 -5 -5 3 -21 -8 -36 -25 -36 -39 -47 -38 -42 5 3 30
2 33 -12 21 -8 -7 -37 -25 -63 -40 -27 -15 -46 -30 -43 -34 14 -13 -69 -112
-94 -112 -36 0 -70 -25 -80 -60 -14 -48 -12 -67 4 -73 9 -4 19 5 26 24 17 40
23 31 8 -9 -8 -19 -18 -30 -25 -28 -8 4 -13 -4 -13 -20 0 -14 -9 -43 -21 -65
-28 -55 -58 -179 -52 -212 3 -15 1 -39 -5 -55 -6 -15 -13 -36 -18 -47 -4 -11
-8 -33 -9 -50 -1 -16 -10 -59 -20 -95 -14 -55 -16 -89 -9 -220 4 -85 7 -190 8
-232 1 -79 11 -101 22 -50 3 15 12 47 19 72 l13 45 1 -37 c1 -20 -4 -71 -10
-114 -11 -84 -3 -123 33 -148 24 -17 156 -9 179 10 8 8 22 14 29 14 12 0 47
10 100 28 8 3 23 4 34 3 11 -2 16 2 12 8 -4 7 1 11 12 11 15 0 19 -5 15 -20
-4 -15 0 -20 14 -20 16 0 19 -5 15 -32 -3 -18 -11 -38 -19 -43 -17 -13 -7 -45
14 -45 19 0 8 -34 -25 -78 -14 -18 -27 -47 -29 -64 -2 -18 -14 -40 -31 -54
-15 -13 -21 -24 -14 -24 7 0 21 7 30 16 22 23 30 -1 8 -25 -9 -10 -16 -23 -16
-30 0 -8 -7 -10 -20 -6 -24 8 -90 -22 -90 -41 0 -7 -8 -19 -18 -26 -36 -25
-65 -109 -42 -123 6 -3 10 -23 10 -44 0 -44 18 -101 31 -101 5 0 9 -5 9 -11 0
-20 -73 46 -87 78 -7 18 -18 33 -24 33 -8 0 -7 5 1 15 10 12 9 25 -4 64 -9 28
-16 57 -16 65 0 9 -4 16 -9 16 -6 0 -11 17 -13 38 -2 28 -8 38 -23 40 -33 5
-62 60 -60 114 1 31 -3 49 -12 52 -9 4 -13 -4 -14 -22 0 -15 -3 -21 -6 -13 -4
10 -9 8 -19 -10 l-13 -24 -1 32 c0 42 -14 49 -30 15 -9 -18 -15 -87 -18 -213
-4 -199 6 -283 48 -375 11 -24 20 -48 20 -55 0 -7 7 -20 16 -30 8 -9 17 -37
19 -61 2 -23 10 -60 19 -80 23 -54 20 -68 -25 -123 -23 -28 -56 -72 -74 -100
l-32 -50 -204 -79 c-112 -43 -280 -116 -374 -161 -140 -69 -187 -97 -265 -163
-52 -43 -110 -100 -129 -125 -19 -26 -38 -47 -43 -47 -4 0 -8 -108 -8 -240 l0
-240 2000 0 2000 0 0 224 0 225 -57 40 c-61 44 -73 49 -73 27 0 -10 -10 -6
-30 12 -16 14 -28 28 -25 30 2 2 11 -3 20 -12 9 -9 22 -16 28 -16 7 1 -1 12
-18 25 -16 14 -36 23 -43 20 -7 -3 -11 -1 -8 3 2 4 -13 18 -35 30 -21 12 -39
18 -39 13 0 -5 5 -11 12 -13 9 -3 9 -6 0 -12 -8 -4 -15 2 -21 17 -5 13 -24 31
-43 41 -51 25 -98 53 -116 68 -22 17 -32 23 -219 119 -87 45 -170 92 -185 104
-15 13 -49 31 -75 40 -97 34 -117 50 -138 107 -11 29 -28 67 -37 84 -27 50
-112 119 -183 149 -55 24 -65 32 -65 53 0 14 6 33 14 41 33 37 73 168 80 263
1 3 4 10 9 14 4 4 7 19 7 33 0 26 21 96 32 107 4 3 4 21 1 40 -3 19 -1 34 4
34 14 0 6 248 -10 307 -8 29 -11 50 -7 48 6 -4 5 59 -1 75 -1 3 -1 7 -1 10 19
247 19 480 2 565 -7 33 -16 116 -19 185 -5 98 -11 135 -28 170 -12 25 -30 76
-42 114 -11 37 -28 78 -39 90 -11 11 -24 35 -29 51 -5 17 -25 40 -46 54 -21
14 -40 36 -43 50 -11 46 -33 70 -74 81 -23 6 -50 22 -62 35 -12 13 -26 22 -31
18 -6 -3 -7 -1 -3 5 3 6 2 13 -4 17 -5 3 -10 2 -10 -4 0 -6 -7 -8 -16 -4 -11
4 -12 8 -4 13 6 4 -16 10 -50 13 -33 3 -66 10 -73 15 -25 21 -113 45 -169 46
-42 1 -65 8 -87 24 -19 14 -49 23 -84 26 -30 3 -69 7 -88 10 -19 2 -49 1 -67
-4z m-58 -18 c3 -5 -8 -22 -24 -37 -17 -16 -30 -23 -30 -17 0 22 4 27 20 24
13 -2 13 -2 0 8 -13 9 -13 11 0 20 19 12 27 12 34 2z m149 1 c-7 -2 -19 -2
-25 0 -7 3 -2 5 12 5 14 0 19 -2 13 -5z m-314 -78 l-1 -20 -6 20 -5 20 -7 -20
c-7 -18 -8 -19 -15 -2 -9 23 14 54 26 35 5 -7 8 -22 8 -33z m51 -5 c0 -5 -5
-10 -11 -10 -5 0 -7 5 -4 10 3 6 8 10 11 10 2 0 4 -4 4 -10z m810 -80 c0 -5
-2 -10 -4 -10 -3 0 -8 5 -11 10 -3 6 -1 10 4 10 6 0 11 -4 11 -10z m40 1 c0
-17 -18 -21 -24 -6 -3 9 0 15 9 15 8 0 15 -4 15 -9z m-1098 -61 c-16 -27 -18
-29 -30 -13 -11 15 -10 20 5 30 32 24 44 16 25 -17z m-50 -45 c-5 -30 -19 -41
-19 -17 0 14 14 42 22 42 1 0 0 -11 -3 -25z m1213 15 c8 -13 -5 -13 -25 0 -13
8 -13 10 2 10 9 0 20 -4 23 -10z m62 -5 c1 -5 -8 -11 -22 -11 -25 -2 -32 6
-18 20 9 9 36 3 40 -9z m-322 -180 c67 -23 76 -28 70 -44 -3 -8 -3 -12 1 -8 4
3 16 -12 27 -34 26 -52 66 -73 126 -65 40 5 49 3 70 -19 13 -14 28 -25 35 -25
6 0 17 -9 24 -20 7 -11 8 -20 3 -20 -5 0 -12 -21 -16 -47 -5 -27 -10 -55 -11
-62 -7 -37 -7 -77 -1 -88 4 -6 3 -14 -3 -18 -7 -4 -7 -13 1 -26 5 -11 7 -29 4
-40 -7 -22 12 -89 25 -89 5 0 12 -10 16 -22 4 -13 24 -59 45 -103 45 -96 105
-288 116 -376 11 -83 8 -195 -5 -222 -20 -42 -25 -62 -23 -93 1 -18 -2 -35 -8
-39 -6 -3 -11 -17 -11 -31 0 -13 -5 -24 -11 -24 -6 0 -9 -8 -6 -19 3 -12 -1
-18 -12 -17 -9 1 -17 -8 -19 -22 -2 -12 -8 -20 -13 -16 -5 3 -12 -8 -15 -25
-4 -17 -10 -28 -15 -25 -5 3 -9 0 -9 -6 0 -6 -4 -9 -9 -6 -4 3 -13 -6 -19 -19
-7 -15 -8 -25 -2 -25 6 0 10 -5 10 -11 0 -5 -4 -7 -10 -4 -5 3 -10 1 -10 -4 0
-6 -7 -11 -15 -11 -9 0 -15 -9 -16 -22 0 -22 -1 -22 -9 -3 -7 17 -9 17 -9 2
-1 -9 -20 -36 -43 -58 -24 -23 -42 -45 -41 -49 1 -4 -7 -7 -19 -6 -12 0 -23 8
-25 16 -4 13 -3 13 6 0 9 -12 11 -9 11 13 0 16 -3 26 -7 24 -9 -6 -15 33 -14
76 6 146 7 140 -29 199 -19 32 -39 58 -43 58 -5 0 -5 -6 -1 -12 4 -8 3 -10 -2
-5 -5 5 -9 13 -9 19 0 14 -43 30 -50 18 -3 -5 -13 -6 -22 -3 -10 4 -14 2 -10
-4 3 -5 0 -10 -8 -10 -8 0 -12 4 -9 8 2 4 0 11 -6 14 -6 4 -9 1 -8 -7 2 -7 -3
-12 -9 -11 -7 2 -13 -1 -13 -6 0 -5 -17 -8 -38 -8 -21 0 -43 -3 -50 -7 -8 -5
-10 -2 -5 10 5 12 3 15 -6 9 -7 -4 -33 -9 -56 -11 -24 -1 -63 -8 -87 -15 -63
-18 -67 -18 -61 -3 5 13 28 18 66 15 11 -2 17 5 17 18 0 29 32 44 64 30 21
-10 30 -9 51 5 26 17 26 18 9 37 -34 37 -112 20 -172 -38 -7 -7 -18 -13 -25
-13 -22 0 -98 42 -107 60 -6 10 -24 29 -41 41 -29 21 -31 21 -25 3 4 -14 1
-20 -12 -20 -9 0 -29 -3 -44 -7 -25 -6 -28 -5 -28 16 0 32 29 70 49 64 17 -4
41 14 41 33 0 5 3 10 8 10 4 0 15 30 25 68 10 37 22 80 27 96 10 32 4 49 -9
27 -15 -24 -19 11 -8 81 13 88 -3 169 -38 192 -35 23 -61 76 -43 87 10 7 10 9
0 9 -7 0 -12 6 -10 13 3 18 -12 57 -22 57 -5 0 -12 -5 -15 -11 -5 -7 -14 -4
-26 7 -10 9 -19 13 -19 8 0 -5 -49 -10 -108 -11 -159 -2 -225 -26 -265 -96
-10 -18 -16 -23 -13 -12 3 11 13 52 22 90 13 50 17 105 16 190 -2 114 0 124
27 182 16 34 44 74 62 90 17 15 39 36 48 45 17 18 111 61 111 51 0 -3 6 -1 13
4 17 14 62 24 132 30 104 8 177 8 182 0 2 -4 12 1 21 11 9 10 13 12 8 5 -5 -8
-4 -13 4 -13 9 0 7 -6 -5 -20 -16 -17 -12 -17 31 5 27 14 60 25 74 25 14 0 36
8 49 17 18 12 22 13 17 2 -5 -9 -2 -8 6 2 7 9 21 15 32 13 10 -1 28 1 40 6 22
10 107 6 141 -5z m-280 -15 c-3 -5 -14 -10 -23 -10 -15 0 -15 2 -2 10 20 13
33 13 25 0z m-55 -15 c-7 -8 -18 -15 -24 -15 -6 0 -2 7 8 15 25 19 32 19 16 0z
m800 -5 c0 -5 -7 -7 -15 -4 -8 4 -12 10 -9 15 6 11 24 2 24 -11z m-290 -20 c0
-5 -5 -10 -11 -10 -5 0 -7 5 -4 10 3 6 8 10 11 10 2 0 4 -4 4 -10z m-35 -10
c-3 -5 0 -10 7 -11 72 -4 95 -22 53 -41 -25 -11 -29 -10 -51 17 -26 33 -30 45
-13 45 5 0 7 -4 4 -10z m-910 -711 c6 -4 35 -9 65 -9 75 -3 89 -8 87 -30 -1
-16 -6 -18 -22 -12 -11 4 -72 5 -136 4 -111 -4 -116 -3 -122 17 -4 15 0 21 12
21 9 0 25 6 35 13 19 14 62 12 81 -4z m110 -158 c-7 -12 -45 -21 -45 -11 0 27
13 39 31 29 11 -5 17 -14 14 -18z m59 -39 c3 -5 -1 -9 -9 -9 -8 0 -15 4 -15 9
0 4 4 8 9 8 6 0 12 -4 15 -8z m516 -754 c-20 -21 -36 -29 -50 -25 -11 3 -20 1
-20 -4 0 -5 5 -9 11 -9 5 0 7 -5 3 -12 -4 -7 -3 -8 4 -4 21 13 31 -3 22 -34
-5 -17 -6 -30 -4 -30 15 0 53 27 86 61 43 45 73 52 66 16 -3 -13 2 -29 11 -37
14 -13 14 -15 -2 -18 -18 -4 -24 -22 -7 -22 6 0 10 -7 10 -15 0 -8 -5 -15 -11
-15 -7 0 -9 -9 -5 -24 6 -26 -10 -45 -35 -41 -12 2 -15 -3 -11 -23 4 -20 2
-24 -10 -19 -10 3 -15 0 -14 -11 0 -9 -7 -17 -19 -19 -16 -1 -16 -1 -2 3 16 5
16 8 -5 37 -12 18 -23 34 -25 36 -6 8 -103 10 -103 2 0 -4 -12 -8 -27 -9 -16
0 -62 -3 -103 -6 -78 -7 -102 -7 -135 -2 -11 2 -26 4 -32 5 -7 0 -13 6 -13 12
0 7 11 8 33 3 40 -9 89 -6 101 6 7 7 4 10 -6 10 -9 0 -33 9 -52 21 -43 25 -51
69 -13 69 18 1 19 2 6 10 -9 5 -31 12 -49 15 -19 3 -40 11 -48 17 -9 8 -16 8
-24 0 -17 -17 -48 4 -48 33 0 27 11 31 40 15 13 -7 21 -6 30 5 11 14 16 14 38
-1 15 -10 27 -12 31 -6 3 5 47 10 96 10 50 0 101 3 115 7 44 11 185 32 192 28
4 -2 -6 -18 -22 -35z m-577 -128 c3 -13 0 -20 -9 -20 -8 0 -14 -4 -14 -9 0 -5
11 -8 25 -6 20 2 25 -2 25 -22 0 -26 19 -64 38 -76 7 -5 10 -12 7 -18 -4 -5
-1 -9 4 -9 6 0 11 -5 11 -11 0 -5 -4 -7 -10 -4 -5 3 -10 0 -10 -8 0 -8 -6 -20
-14 -26 -12 -10 -16 -6 -21 21 -4 18 -13 36 -19 41 -8 5 -7 10 4 17 12 8 10
10 -9 10 -16 0 -21 4 -18 15 4 8 2 17 -4 20 -5 4 -7 11 -4 16 3 5 0 7 -7 4
-18 -7 -38 28 -31 53 4 18 15 26 44 31 4 0 9 -8 12 -19z m1094 -312 c-3 -7 -5
-2 -5 12 0 14 2 19 5 13 2 -7 2 -19 0 -25z m3 -44 c0 -14 5 -34 10 -45 6 -10
7 -19 2 -19 -4 0 -8 -10 -9 -22 0 -13 -3 -34 -6 -48 -3 -14 -6 -28 -6 -32 -1
-5 -8 -8 -17 -8 -11 0 -14 -6 -9 -20 4 -11 -3 -59 -15 -106 -24 -100 -64 -168
-136 -234 -103 -94 -185 -165 -190 -165 -3 0 -28 -22 -55 -48 -28 -27 -88 -73
-135 -103 -46 -30 -84 -58 -84 -63 0 -5 -9 -13 -21 -16 -11 -4 -18 -9 -16 -12
3 -2 -32 -38 -79 -79 -46 -42 -87 -81 -91 -89 -5 -8 -32 -39 -62 -70 -82 -85
-95 -79 -155 77 -14 36 -32 79 -40 95 -40 78 -76 164 -76 182 0 11 -4 23 -10
26 -5 3 -10 17 -10 30 0 13 -4 27 -10 30 -10 6 -31 74 -32 109 -1 11 -6 26
-11 33 -13 18 0 32 26 26 l22 -6 -22 25 c-27 28 -29 38 -8 38 8 0 15 3 15 8 0
4 13 21 29 39 21 24 31 29 39 21 9 -9 12 -8 12 3 1 11 3 11 13 -3 7 -9 32 -21
55 -27 22 -7 48 -22 57 -34 11 -16 18 -19 23 -10 6 9 18 6 45 -14 23 -16 49
-26 69 -25 18 0 44 1 57 1 14 1 28 7 33 13 5 9 8 5 8 -10 l0 -24 31 26 c20 17
38 24 50 21 10 -4 24 -3 31 2 7 4 24 8 38 8 14 0 31 4 38 9 7 4 19 2 27 -4 12
-10 15 -10 15 0 0 6 6 10 12 8 7 -3 21 4 32 13 10 10 23 16 28 13 4 -3 8 1 8
9 0 18 54 42 75 34 9 -4 19 2 26 16 7 12 19 28 26 36 13 12 16 12 24 0 7 -11
9 -11 9 3 0 11 5 15 15 12 9 -4 15 0 15 10 0 11 9 16 26 16 14 0 23 4 19 9 -3
5 3 12 14 16 11 3 25 13 33 22 11 14 11 16 -2 8 -12 -6 -13 -6 -2 6 11 11 14
12 21 1 6 -11 14 -8 35 11 14 13 26 29 26 34 0 6 7 16 15 23 8 6 14 15 13 18
-2 22 5 34 25 41 22 9 22 9 -6 22 -23 10 -25 14 -12 21 8 5 20 6 25 3 6 -3 10
1 10 10 0 9 -4 13 -10 10 -5 -3 -10 1 -10 9 0 10 6 13 18 9 14 -5 13 -3 -3 10
-18 15 -18 16 -2 17 10 0 17 8 17 19 0 30 11 51 26 51 8 0 14 -10 14 -26z"/>
<path d="M1983 2870 c-2 -3 -9 -6 -14 -6 -5 -1 -12 -2 -15 -3 -4 0 0 -9 7 -18
8 -9 9 -14 3 -10 -6 4 -20 -3 -30 -15 -11 -12 -13 -18 -5 -13 11 6 13 3 7 -18
-5 -20 -2 -29 12 -36 10 -5 24 -6 31 -2 17 11 62 1 55 -11 -4 -6 3 -5 14 1 25
13 65 15 57 2 -3 -5 0 -13 6 -17 7 -4 9 -3 6 3 -4 6 1 14 11 18 24 11 72 15
72 6 0 -4 19 -5 43 -1 85 12 238 -32 185 -53 -8 -3 -5 -6 5 -6 43 -2 64 64 30
94 -10 9 -36 31 -57 50 -37 33 -64 47 -51 25 7 -12 -8 -14 -19 -2 -11 10 -30
9 -38 -2 -4 -6 -16 -5 -33 2 -15 7 -31 9 -37 6 -6 -4 -9 -3 -5 2 5 9 -230 13
-240 4z"/>
<path d="M2025 2658 c-19 -22 -31 -103 -14 -92 5 3 9 -5 9 -16 0 -13 8 -24 20
-27 11 -3 17 -9 14 -14 -9 -15 13 -42 37 -45 13 -2 78 -5 144 -8 84 -3 100 -2
53 3 -37 4 -73 13 -81 19 -8 7 -17 9 -20 5 -4 -3 -7 -1 -7 5 0 7 7 12 15 12 8
0 15 6 15 14 0 10 10 13 38 9 20 -3 41 -9 46 -13 5 -5 20 -1 34 10 18 15 29
17 42 10 24 -13 33 -13 24 1 -4 7 1 7 16 -1 25 -13 29 -11 35 19 3 15 -7 32
-33 57 -58 57 -91 67 -237 71 -125 3 -131 2 -150 -19z m121 -83 c9 -14 15 -27
13 -30 -3 -2 -24 -1 -47 2 l-43 6 22 23 c28 30 35 30 55 -1z m180 4 c3 -6 0
-15 -7 -20 -24 -15 -37 -10 -32 11 6 22 28 27 39 9z"/>
<path d="M2480 2630 c0 -6 7 -10 15 -10 8 0 15 2 15 4 0 2 -7 6 -15 10 -8 3
-15 1 -15 -4z"/>
<path d="M1940 2537 c0 -7 8 -17 19 -24 17 -11 18 -10 7 13 -12 26 -26 32 -26
11z"/>
<path d="M1970 2005 c-11 -13 -10 -14 4 -9 9 3 16 10 16 15 0 13 -6 11 -20 -6z"/>
<path d="M2375 3370 c3 -5 14 -10 23 -10 15 0 15 2 2 10 -20 13 -33 13 -25 0z"/>
<path d="M1968 1673 c7 -3 16 -2 19 1 4 3 -2 6 -13 5 -11 0 -14 -3 -6 -6z"/>
<path d="M1830 1654 c0 -15 26 -19 34 -5 3 5 -3 11 -14 14 -13 3 -20 0 -20 -9z"/>
<path d="M2200 1550 c0 -5 5 -10 11 -10 5 0 7 5 4 10 -3 6 -8 10 -11 10 -2 0
-4 -4 -4 -10z"/>
<path d="M1091 2464 c0 -11 3 -14 6 -6 3 7 2 16 -1 19 -3 4 -6 -2 -5 -13z"/>
<path d="M1080 2428 c0 -3 -4 -29 -10 -58 -5 -29 -6 -59 -1 -67 5 -10 10 8 14
53 4 37 4 70 2 73 -3 2 -5 2 -5 -1z"/>
</g>
</svg>
